<?xml version="1.0" standalone="no"?>
<!DOCTYPE svg PUBLIC "-//W3C//DTD SVG 20010904//EN"
 "http://www.w3.org/TR/2001/REC-SVG-20010904/DTD/svg10.dtd">
<svg version="1.0" xmlns="http://www.w3.org/2000/svg"
 width="582.000000pt" height="582.000000pt" viewBox="0 0 582.000000 582.000000"
 preserveAspectRatio="xMidYMid meet">
<metadata>
Created by potrace 1.14, written by Peter Selinger 2001-2017
</metadata>
<g transform="translate(0.000000,582.000000) scale(0.100000,-0.100000)"
fill="#000000" stroke="none">
<path d="M2851 5799 c-11 -12 -46 -65 -78 -118 -31 -53 -60 -98 -63 -101 -4
-3 -9 -12 -12 -21 -4 -9 -21 -19 -38 -21 -36 -5 -39 -3 -170 140 -84 92 -117
107 -168 77 -25 -15 -38 -41 -83 -162 -29 -79 -56 -146 -59 -148 -3 -1 -19 -6
-35 -9 -23 -5 -36 -2 -52 14 -12 11 -25 20 -28 20 -5 0 -79 54 -122 90 -33 27
-81 50 -103 50 -47 -1 -76 -40 -91 -121 -7 -41 -13 -76 -14 -79 -2 -7 -19
-133 -19 -143 -1 -5 -16 -17 -35 -26 -33 -17 -34 -17 -90 10 -31 16 -92 44
-136 64 -73 33 -83 36 -117 25 -54 -16 -66 -46 -63 -152 2 -48 6 -92 9 -97 4
-5 2 -12 -3 -15 -4 -3 -5 -24 -1 -47 7 -36 5 -45 -19 -71 l-26 -29 -105 26
c-58 14 -115 28 -127 30 -13 3 -34 7 -48 10 -55 12 -112 -48 -102 -106 3 -13
16 -73 30 -134 35 -151 35 -147 10 -173 -23 -22 -26 -23 -165 -17 -92 3 -152
2 -168 -5 -25 -10 -63 -60 -59 -77 4 -24 57 -146 105 -247 18 -37 21 -53 13
-63 -6 -7 -8 -13 -5 -13 4 0 -1 -8 -11 -19 -13 -14 -55 -24 -161 -41 -78 -13
-149 -28 -157 -34 -23 -17 -44 -78 -35 -101 5 -11 46 -74 93 -139 79 -112 84
-121 75 -150 -9 -30 -20 -35 -151 -85 -147 -57 -176 -77 -177 -124 0 -39 13
-60 67 -110 167 -154 165 -151 154 -219 0 -4 -54 -39 -118 -79 -64 -40 -125
-81 -135 -91 -34 -34 -14 -138 28 -138 8 0 14 -4 14 -10 0 -5 7 -10 15 -10 8
0 15 -4 15 -10 0 -5 4 -10 10 -10 5 0 47 -24 93 -54 77 -50 83 -56 84 -87 0
-36 -3 -39 -161 -187 -62 -59 -76 -94 -57 -141 15 -34 30 -42 216 -111 107
-40 95 -33 99 -56 2 -11 6 -24 8 -30 3 -10 -57 -113 -73 -124 -4 -3 -28 -35
-53 -72 -78 -114 -57 -178 64 -194 48 -6 205 -34 223 -40 9 -3 23 -17 31 -32
14 -27 6 -52 -77 -233 -36 -80 -37 -86 -22 -121 22 -53 36 -57 204 -53 140 3
154 2 172 -16 18 -18 24 -40 19 -64 -1 -5 -3 -17 -5 -25 -2 -8 -8 -33 -14 -55
-6 -22 -12 -51 -15 -65 -2 -14 -5 -25 -6 -25 -2 0 -9 -36 -15 -78 -6 -47 15
-82 59 -97 26 -8 54 -5 157 20 68 17 134 32 146 35 32 7 72 -44 66 -87 -11
-94 -10 -254 3 -279 27 -53 74 -58 165 -15 214 98 209 96 243 71 11 -8 21 -27
23 -43 1 -15 5 -43 8 -62 4 -19 13 -72 21 -118 17 -100 24 -116 63 -132 44
-18 67 -9 179 75 56 41 106 75 111 75 5 0 11 5 13 11 2 7 15 8 38 2 34 -9 36
-13 89 -155 46 -122 60 -149 84 -163 59 -35 87 -17 245 163 40 44 52 52 82 52
26 0 39 -6 49 -22 8 -13 43 -70 79 -128 35 -58 71 -111 80 -118 24 -18 89 -15
110 6 9 9 50 72 91 139 65 107 78 122 105 126 28 4 38 -3 101 -72 153 -166
167 -175 224 -151 34 14 40 26 108 209 36 98 40 105 71 113 30 8 40 4 105 -44
40 -29 74 -55 77 -58 3 -3 28 -21 55 -39 39 -25 57 -31 83 -27 56 8 75 40 87
141 3 32 8 62 10 65 1 3 6 28 9 55 11 79 15 89 44 106 30 17 29 18 215 -70 94
-44 107 -47 140 -29 54 28 58 50 48 263 -5 92 -2 109 24 128 24 17 28 17 127
-8 169 -43 196 -47 227 -31 56 29 58 63 17 234 -24 103 -25 154 -2 178 10 9
52 11 167 9 169 -5 186 0 209 60 10 27 1 55 -93 265 -24 53 -24 57 -8 87 9 18
18 31 21 31 3 -1 41 4 85 12 44 7 89 14 100 16 11 1 22 3 25 4 11 5 26 7 51 8
39 3 70 35 76 81 5 38 1 47 -81 161 -68 95 -86 127 -84 151 1 17 7 34 13 39 5
4 57 27 115 49 164 65 177 71 189 97 26 57 17 73 -104 192 -106 102 -116 115
-112 144 2 18 11 36 22 42 10 6 28 19 39 29 11 9 24 17 28 17 5 0 14 5 21 10
7 6 41 29 77 51 36 22 71 48 78 57 16 20 16 84 0 104 -13 16 -164 118 -175
118 -3 0 -21 11 -39 25 -18 14 -36 25 -41 25 -4 0 -9 17 -10 38 -2 32 3 42 40
75 170 155 196 189 183 241 -10 39 -29 52 -158 101 -68 25 -130 50 -138 54
-22 12 -40 72 -26 88 22 25 32 39 66 91 18 28 37 52 42 52 4 0 8 6 8 13 0 6
11 25 25 41 35 40 34 94 -1 130 -15 14 -36 26 -48 27 -11 0 -32 3 -46 5 -232
41 -223 38 -241 71 -14 25 -15 35 -5 54 6 13 22 49 35 79 13 30 35 80 49 110
28 61 29 72 18 113 -15 50 -48 58 -213 52 l-148 -6 -21 26 -21 27 23 99 c46
195 47 204 30 237 -19 36 -66 57 -103 46 -16 -4 -35 -9 -43 -10 -8 -2 -35 -8
-60 -14 -25 -7 -52 -13 -60 -15 -8 -2 -34 -8 -58 -14 -40 -11 -45 -10 -72 12
-16 14 -27 26 -25 28 6 6 12 278 7 305 -6 32 -58 66 -92 60 -23 -4 -54 -17
-212 -90 -31 -14 -63 -26 -70 -26 -25 1 -62 28 -64 46 -10 84 -16 130 -20 135
-2 4 -6 31 -10 60 -9 79 -26 113 -64 129 -44 18 -63 10 -197 -89 -104 -76
-114 -81 -145 -73 -29 7 -35 16 -56 73 -13 35 -27 73 -32 84 -5 11 -19 49 -32
83 -24 67 -52 92 -102 92 -27 0 -56 -26 -181 -161 -63 -69 -74 -76 -101 -72
-27 4 -40 19 -105 126 -41 66 -83 129 -93 139 -28 26 -90 24 -115 -3z m-26
-517 c-53 -42 -60 -46 -33 -19 16 15 31 27 35 27 4 0 3 -3 -2 -8z m211 -44 c4
-7 -9 1 -29 16 -20 16 -37 30 -37 33 0 7 58 -36 66 -49z m22 -43 c-3 -3 -9 2
-12 12 -6 14 -5 15 5 6 7 -7 10 -15 7 -18z m-313 -54 c3 -5 2 -12 -3 -15 -5
-3 -9 1 -9 9 0 17 3 19 12 6z m322 -27 c-3 -3 -12 -4 -19 -1 -8 3 -5 6 6 6 11
1 17 -2 13 -5z m-302 -42 c-3 -3 -11 0 -18 7 -9 10 -8 11 6 5 10 -3 15 -9 12
-12z m-542 -159 c-7 -2 -19 -2 -25 0 -7 3 -2 5 12 5 14 0 19 -2 13 -5z m-93
-27 c0 -2 -7 -7 -16 -10 -8 -3 -12 -2 -9 4 6 10 25 14 25 6z m-240 -130 c0 -2
-7 -7 -16 -10 -8 -3 -12 -2 -9 4 6 10 25 14 25 6z m2131 -22 c8 -10 3 -10 -20
2 -17 9 -31 17 -31 19 0 8 40 -9 51 -21z m-2281 -69 c-7 -8 -17 -15 -23 -15
-6 0 -2 7 9 15 25 19 30 19 14 0z m2381 -2 c13 -16 12 -17 -3 -4 -17 13 -22
21 -14 21 2 0 10 -8 17 -17z m-2478 -68 c-3 -9 -8 -14 -10 -11 -3 3 -2 9 2 15
9 16 15 13 8 -4z m2612 -35 c10 -11 16 -20 13 -20 -3 0 -13 9 -23 20 -10 11
-16 20 -13 20 3 0 13 -9 23 -20z m-2675 -20 c-19 -16 -39 -30 -44 -30 -5 0 8
13 30 30 50 38 59 38 14 0z m2751 -47 c13 -16 12 -17 -3 -4 -10 7 -18 15 -18
17 0 8 8 3 21 -13z m-2811 3 c0 -2 -8 -10 -17 -17 -16 -13 -17 -12 -4 4 13 16
21 21 21 13z m2851 -43 c13 -16 12 -17 -3 -4 -17 13 -22 21 -14 21 2 0 10 -8
17 -17z m-2902 -6 c-2 -1 -13 -9 -24 -17 -19 -14 -19 -14 -6 3 7 9 18 17 24
17 6 0 8 -1 6 -3z m2971 -62 c7 -9 8 -15 2 -15 -5 0 -12 7 -16 15 -3 8 -4 15
-2 15 2 0 9 -7 16 -15z m-3040 1 c0 -2 -8 -10 -17 -17 -16 -13 -17 -12 -4 4
13 16 21 21 21 13z m-60 -60 c0 -2 -8 -10 -17 -17 -16 -13 -17 -12 -4 4 13 16
21 21 21 13z m3165 -16 c10 -11 16 -20 13 -20 -3 0 -13 9 -23 20 -10 11 -16
20 -13 20 3 0 13 -9 23 -20z m-3242 -65 c-3 -9 -8 -14 -10 -11 -3 3 -2 9 2 15
9 16 15 13 8 -4z m2527 -159 c0 -2 -9 -6 -20 -9 -11 -3 -18 -1 -14 4 5 9 34
13 34 5z m938 -111 c-3 -3 -9 2 -12 12 -6 14 -5 15 5 6 7 -7 10 -15 7 -18z
m-3664 3 c-4 -6 1 -17 11 -25 11 -7 14 -13 8 -13 -16 0 -36 28 -28 40 3 5 8
10 11 10 3 0 2 -5 -2 -12z m1690 -114 c3 -9 -7 -5 -24 8 -17 12 -30 23 -30 25
0 8 50 -22 54 -33z m-530 7 c3 -4 -6 -6 -19 -3 -14 2 -25 6 -25 8 0 8 39 4 44
-5z m602 0 c-3 -5 -17 -11 -32 -14 -29 -5 -20 9 11 16 11 3 21 5 23 6 2 0 1
-3 -2 -8z m2049 -191 c3 -6 -1 -7 -9 -4 -18 7 -21 14 -7 14 6 0 13 -4 16 -10z
m215 -40 c0 -5 -2 -10 -4 -10 -3 0 -8 5 -11 10 -3 6 -1 10 4 10 6 0 11 -4 11
-10z m-22 -190 c-7 -10 -14 -17 -17 -15 -4 4 18 35 25 35 2 0 -1 -9 -8 -20z
m-3868 -655 c7 -9 8 -15 2 -15 -5 0 -12 7 -16 15 -3 8 -4 15 -2 15 2 0 9 -7
16 -15z m50 1 c0 -2 -7 -7 -16 -10 -8 -3 -12 -2 -9 4 6 10 25 14 25 6z m3600
-86 c0 -5 -4 -10 -10 -10 -5 0 -10 5 -10 10 0 6 5 10 10 10 6 0 10 -4 10 -10z
m115 -59 c3 -5 2 -12 -3 -15 -5 -3 -9 1 -9 9 0 17 3 19 12 6z m-1227 -176 c-3
-3 -9 2 -12 12 -6 14 -5 15 5 6 7 -7 10 -15 7 -18z m117 15 c-3 -5 -14 -10
-23 -9 -14 0 -13 2 3 9 27 11 27 11 20 0z m-50 -10 c-3 -5 -12 -10 -18 -10 -7
0 -6 4 3 10 19 12 23 12 15 0z m1020 -240 c3 -5 1 -10 -4 -10 -6 0 -11 5 -11
10 0 6 2 10 4 10 3 0 8 -4 11 -10z m45 0 c0 -5 -8 -10 -17 -10 -15 0 -16 2 -3
10 19 12 20 12 20 0z m-2010 -904 c0 -2 -9 -6 -20 -9 -11 -3 -18 -1 -14 4 5 9
34 13 34 5z m-50 -10 c0 -2 -7 -7 -16 -10 -8 -3 -12 -2 -9 4 6 10 25 14 25 6z
m-1017 -261 c-3 -9 -8 -14 -10 -11 -3 3 -2 9 2 15 9 16 15 13 8 -4z m-253 -5
c0 -5 -2 -10 -4 -10 -3 0 -8 5 -11 10 -3 6 -1 10 4 10 6 0 11 -4 11 -10z m60
-10 c-8 -5 -19 -10 -25 -10 -5 0 -3 5 5 10 8 5 20 10 25 10 6 0 3 -5 -5 -10z
m-80 -32 c15 -21 17 -28 6 -19 -16 13 -41 51 -33 51 2 0 14 -15 27 -32z m2797
26 c-3 -3 -12 -4 -19 -1 -8 3 -5 6 6 6 11 1 17 -2 13 -5z m-2537 -7 c0 -2 -12
-14 -27 -28 l-28 -24 24 28 c23 25 31 32 31 24z m2510 -32 c-7 -9 -15 -13 -17
-11 -6 6 20 36 26 30 2 -2 -2 -10 -9 -19z m-210 -10 c-7 -9 -15 -13 -19 -10
-3 3 1 10 9 15 21 14 24 12 10 -5z m-2365 -15 c-3 -5 -12 -10 -18 -10 -7 0 -6
4 3 10 19 12 23 12 15 0z m2540 0 c-3 -5 -12 -10 -18 -10 -7 0 -6 4 3 10 19
12 23 12 15 0z m-580 -20 c3 -5 2 -10 -4 -10 -5 0 -13 5 -16 10 -3 6 -2 10 4
10 5 0 13 -4 16 -10z m-671 -148 c3 -5 -1 -9 -9 -9 -8 0 -12 4 -9 9 3 4 7 8 9
8 2 0 6 -4 9 -8z m76 2 c0 -8 -19 -13 -24 -6 -3 5 1 9 9 9 8 0 15 -2 15 -3z
m-117 -11 c-7 -2 -19 -2 -25 0 -7 3 -2 5 12 5 14 0 19 -2 13 -5z"/>
</g>
</svg>
